<svg width="57" height="57" viewBox="0 0 57 57" fill="none" xmlns="http://www.w3.org/2000/svg">
<path d="M51.6804 12.7544L39.2892 0.363041C39.0574 0.130143 38.7426 0 38.413 0H8.67392C6.62437 0 4.95656 1.66792 4.95656 3.71736V53.2825C4.95656 55.3321 6.62448 56.9999 8.67392 56.9999H48.3261C50.3744 56.9999 52.0422 55.3333 52.0435 53.285C52.0435 53.2838 52.0435 53.2838 52.0435 53.2825V13.6305C52.0435 13.302 51.9134 12.9861 51.6804 12.7544ZM14.8695 14.8695V9.91299H34.6956V14.8695H14.8695ZM49.5652 53.2826C49.5652 53.9666 49.0101 54.5217 48.3261 54.5217H8.67392C7.99114 54.5217 7.43483 53.9666 7.43483 53.2826V3.71736C7.43483 3.03458 7.99125 2.47828 8.67392 2.47828H34.6956V7.43483H13.6305C12.9465 7.43483 12.3914 7.98991 12.3914 8.67391V16.1087C12.3914 16.7927 12.9465 17.3478 13.6305 17.3478H35.9348H49.5653V53.2826H49.5652ZM49.5652 14.8695H37.1739V2.47828H37.9L49.5652 14.1435V14.8695Z" fill="#EFA703"/>
<path d="M13.6305 24.7826H28.5C29.184 24.7826 29.7391 24.2275 29.7391 23.5435C29.7391 22.8595 29.184 22.3044 28.5 22.3044H13.6305C12.9465 22.3044 12.3914 22.8595 12.3914 23.5435C12.3914 24.2275 12.9465 24.7826 13.6305 24.7826Z" fill="#EFA703"/>
<path d="M13.6305 39.6522H28.5C29.184 39.6522 29.7391 39.0984 29.7391 38.4132C29.7391 37.7279 29.184 37.1741 28.5 37.1741H13.6305C12.9465 37.1741 12.3914 37.7279 12.3914 38.4132C12.3913 39.0984 12.9465 39.6522 13.6305 39.6522Z" fill="#EFA703"/>
<path d="M12.3913 30.9783C12.3913 31.6636 12.9463 32.2174 13.6303 32.2174H43.3694C44.0547 32.2174 44.6085 31.6636 44.6085 30.9783C44.6085 30.2931 44.0547 29.7393 43.3694 29.7393H13.6303C12.9465 29.7391 12.3913 30.2931 12.3913 30.9783Z" fill="#EFA703"/>
<path d="M43.3696 44.6088H13.6305C12.9465 44.6088 12.3914 45.1626 12.3914 45.8478C12.3914 46.5331 12.9465 47.0869 13.6305 47.0869H43.3696C44.0548 47.0869 44.6086 46.5331 44.6086 45.8478C44.6086 45.1626 44.0548 44.6088 43.3696 44.6088Z" fill="#EFA703"/>
</svg>
