<svg width="57" height="57" viewBox="0 0 57 57" fill="none" xmlns="http://www.w3.org/2000/svg">
<path d="M21.8878 27.2179C21.2357 26.5658 20.1783 26.5658 19.5262 27.2179C18.874 27.8701 18.874 28.9274 19.5262 29.5795L24.7215 34.7749C25.0476 35.101 25.475 35.2641 25.9023 35.2641C26.3295 35.2641 26.757 35.1011 27.083 34.7749L37.4736 24.3843C38.1257 23.7321 38.1257 22.6748 37.4736 22.0227C36.8215 21.3705 35.7641 21.3705 35.112 22.0227L25.9021 31.2324L21.8878 27.2179Z" fill="#EFA703"/>
<path d="M49.6423 7.79297C44.8291 7.79297 40.4438 5.14826 38.1982 0.890848C37.9093 0.342891 37.3407 0 36.7212 0H20.2788C19.6593 0 19.0907 0.342891 18.8017 0.890848C16.5562 5.14826 12.1709 7.79297 7.34766 7.79297C6.42541 7.79297 5.67773 8.54065 5.67773 9.46289V26.4684C5.67773 33.3048 7.81379 39.8329 11.8549 45.347C15.8962 50.861 21.478 54.8637 27.9971 56.9224C28.1608 56.9741 28.3303 56.9999 28.5 56.9999C28.6697 56.9999 28.8392 56.9741 29.0029 56.9224C35.522 54.8637 41.1038 50.861 45.1451 45.347C49.1862 39.8329 51.3223 33.3048 51.3223 26.4684V9.46289C51.3223 8.54065 50.5646 7.79297 49.6423 7.79297ZM47.9824 26.4684C47.9824 38.8274 40.1754 49.6536 28.5 53.5739C16.8246 49.6536 9.01758 38.8274 9.01758 26.4684V11.049C14.0717 10.536 18.5916 7.69968 21.2501 3.33984H35.75C38.4071 7.69745 42.9243 10.5331 47.9824 11.0482V26.4684Z" fill="#EFA703"/>
<path d="M34.467 7.29288C34.1498 6.90479 33.675 6.67969 33.1738 6.67969H23.8261C23.3249 6.67969 22.8502 6.90479 22.5331 7.29288C20.1719 10.182 17.0502 12.325 13.5058 13.4902C12.8205 13.7154 12.3574 14.3552 12.3574 15.0766V26.4685C12.3574 36.6953 18.4414 45.8404 27.8573 49.7666C28.063 49.8523 28.2816 49.8951 28.5 49.8951C28.7184 49.8951 28.9371 49.8523 29.1427 49.7666C38.5586 45.8404 44.6426 36.6953 44.6426 26.4685V15.0777C44.6426 14.3564 44.1796 13.7166 43.4943 13.4913C39.9498 12.3257 36.8281 10.1824 34.467 7.29288ZM41.3027 26.4685C41.3027 35.108 36.3006 42.8572 28.5 46.404C20.6993 42.8573 15.6973 35.1081 15.6973 26.4685V16.2515C19.1244 14.9195 22.1718 12.7876 24.6 10.0195H32.3999C34.8282 12.7879 37.8753 14.9202 41.3027 16.2523V26.4685Z" fill="#EFA703"/>
</svg>
