<svg width="239" height="70" viewBox="0 0 239 70" fill="none" xmlns="http://www.w3.org/2000/svg">
<path d="M102.16 30L102.14 19.8L97.08 28.3H96.16L91.1 19.86V30H89.18V16H90.82L96.66 25.84L102.42 16H104.06L104.08 30H102.16ZM112.658 30.12C111.604 30.12 110.658 29.8867 109.818 29.42C108.978 28.9533 108.318 28.3133 107.838 27.5C107.371 26.6733 107.138 25.74 107.138 24.7C107.138 23.66 107.371 22.7333 107.838 21.92C108.318 21.0933 108.978 20.4533 109.818 20C110.658 19.5333 111.604 19.3 112.658 19.3C113.711 19.3 114.651 19.5333 115.478 20C116.318 20.4533 116.971 21.0933 117.438 21.92C117.918 22.7333 118.158 23.66 118.158 24.7C118.158 25.74 117.918 26.6733 117.438 27.5C116.971 28.3133 116.318 28.9533 115.478 29.42C114.651 29.8867 113.711 30.12 112.658 30.12ZM112.658 28.44C113.338 28.44 113.944 28.2867 114.478 27.98C115.024 27.66 115.451 27.22 115.758 26.66C116.064 26.0867 116.218 25.4333 116.218 24.7C116.218 23.9667 116.064 23.32 115.758 22.76C115.451 22.1867 115.024 21.7467 114.478 21.44C113.944 21.1333 113.338 20.98 112.658 20.98C111.978 20.98 111.364 21.1333 110.818 21.44C110.284 21.7467 109.858 22.1867 109.538 22.76C109.231 23.32 109.078 23.9667 109.078 24.7C109.078 25.4333 109.231 26.0867 109.538 26.66C109.858 27.22 110.284 27.66 110.818 27.98C111.364 28.2867 111.978 28.44 112.658 28.44ZM125.55 30.12C124.47 30.12 123.504 29.8867 122.65 29.42C121.81 28.9533 121.15 28.3133 120.67 27.5C120.19 26.6733 119.95 25.74 119.95 24.7C119.95 23.66 120.19 22.7333 120.67 21.92C121.15 21.0933 121.81 20.4533 122.65 20C123.504 19.5333 124.47 19.3 125.55 19.3C126.51 19.3 127.364 19.4933 128.11 19.88C128.87 20.2667 129.457 20.8267 129.87 21.56L128.41 22.5C128.077 21.9933 127.664 21.6133 127.17 21.36C126.677 21.1067 126.13 20.98 125.53 20.98C124.837 20.98 124.21 21.1333 123.65 21.44C123.104 21.7467 122.67 22.1867 122.35 22.76C122.044 23.32 121.89 23.9667 121.89 24.7C121.89 25.4467 122.044 26.1067 122.35 26.68C122.67 27.24 123.104 27.6733 123.65 27.98C124.21 28.2867 124.837 28.44 125.53 28.44C126.13 28.44 126.677 28.3133 127.17 28.06C127.664 27.8067 128.077 27.4267 128.41 26.92L129.87 27.84C129.457 28.5733 128.87 29.14 128.11 29.54C127.364 29.9267 126.51 30.12 125.55 30.12ZM136.476 25.52H134.276V30H132.356V19.4H134.276V23.88H136.516L139.956 19.4H142.016L137.996 24.5L142.296 30H140.036L136.476 25.52ZM148.498 30.12C147.444 30.12 146.498 29.8867 145.658 29.42C144.818 28.9533 144.158 28.3133 143.678 27.5C143.211 26.6733 142.978 25.74 142.978 24.7C142.978 23.66 143.211 22.7333 143.678 21.92C144.158 21.0933 144.818 20.4533 145.658 20C146.498 19.5333 147.444 19.3 148.498 19.3C149.551 19.3 150.491 19.5333 151.318 20C152.158 20.4533 152.811 21.0933 153.278 21.92C153.758 22.7333 153.998 23.66 153.998 24.7C153.998 25.74 153.758 26.6733 153.278 27.5C152.811 28.3133 152.158 28.9533 151.318 29.42C150.491 29.8867 149.551 30.12 148.498 30.12ZM148.498 28.44C149.178 28.44 149.784 28.2867 150.318 27.98C150.864 27.66 151.291 27.22 151.598 26.66C151.904 26.0867 152.058 25.4333 152.058 24.7C152.058 23.9667 151.904 23.32 151.598 22.76C151.291 22.1867 150.864 21.7467 150.318 21.44C149.784 21.1333 149.178 20.98 148.498 20.98C147.818 20.98 147.204 21.1333 146.658 21.44C146.124 21.7467 145.698 22.1867 145.378 22.76C145.071 23.32 144.918 23.9667 144.918 24.7C144.918 25.4333 145.071 26.0867 145.378 26.66C145.698 27.22 146.124 27.66 146.658 27.98C147.204 28.2867 147.818 28.44 148.498 28.44ZM163.99 24.5C165.363 24.8467 166.05 25.7067 166.05 27.08C166.05 28.0133 165.697 28.7333 164.99 29.24C164.297 29.7467 163.257 30 161.87 30H156.77V19.4H161.69C162.943 19.4 163.923 19.64 164.63 20.12C165.337 20.5867 165.69 21.2533 165.69 22.12C165.69 22.68 165.537 23.1667 165.23 23.58C164.937 23.98 164.523 24.2867 163.99 24.5ZM158.65 23.96H161.53C162.263 23.96 162.817 23.8267 163.19 23.56C163.577 23.2933 163.77 22.9067 163.77 22.4C163.77 21.3867 163.023 20.88 161.53 20.88H158.65V23.96ZM161.73 28.52C162.53 28.52 163.13 28.3933 163.53 28.14C163.93 27.8867 164.13 27.4933 164.13 26.96C164.13 26.4133 163.943 26.0067 163.57 25.74C163.21 25.4733 162.637 25.34 161.85 25.34H158.65V28.52H161.73ZM173.675 30.12C172.595 30.12 171.629 29.8867 170.775 29.42C169.935 28.9533 169.275 28.3133 168.795 27.5C168.315 26.6733 168.075 25.74 168.075 24.7C168.075 23.66 168.315 22.7333 168.795 21.92C169.275 21.0933 169.935 20.4533 170.775 20C171.629 19.5333 172.595 19.3 173.675 19.3C174.635 19.3 175.489 19.4933 176.235 19.88C176.995 20.2667 177.582 20.8267 177.995 21.56L176.535 22.5C176.202 21.9933 175.789 21.6133 175.295 21.36C174.802 21.1067 174.255 20.98 173.655 20.98C172.962 20.98 172.335 21.1333 171.775 21.44C171.229 21.7467 170.795 22.1867 170.475 22.76C170.169 23.32 170.015 23.9667 170.015 24.7C170.015 25.4467 170.169 26.1067 170.475 26.68C170.795 27.24 171.229 27.6733 171.775 27.98C172.335 28.2867 172.962 28.44 173.655 28.44C174.255 28.44 174.802 28.3133 175.295 28.06C175.789 27.8067 176.202 27.4267 176.535 26.92L177.995 27.84C177.582 28.5733 176.995 29.14 176.235 29.54C175.489 29.9267 174.635 30.12 173.675 30.12ZM184.601 25.52H182.401V30H180.481V19.4H182.401V23.88H184.641L188.081 19.4H190.141L186.121 24.5L190.421 30H188.161L184.601 25.52ZM192.434 19.4H194.354V27.12L200.854 19.4H202.594V30H200.674V22.28L194.194 30H192.434V19.4ZM206.321 19.4H208.241V27.12L214.741 19.4H216.481V30H214.561V22.28L208.081 30H206.321V19.4ZM211.281 18.02C210.294 18.02 209.528 17.7867 208.981 17.32C208.434 16.84 208.154 16.1533 208.141 15.26H209.441C209.454 15.7533 209.621 16.1533 209.941 16.46C210.274 16.7533 210.714 16.9 211.261 16.9C211.808 16.9 212.248 16.7533 212.581 16.46C212.914 16.1533 213.088 15.7533 213.101 15.26H214.441C214.428 16.1533 214.141 16.84 213.581 17.32C213.021 17.7867 212.254 18.02 211.281 18.02ZM103.1 52.26V57.18H101.24V54H89.18V40H91.16V52.26H98.96V40H100.94V52.26H103.1ZM114.788 48.76C114.788 48.9067 114.774 49.1 114.748 49.34H106.148C106.268 50.2733 106.674 51.0267 107.368 51.6C108.074 52.16 108.948 52.44 109.988 52.44C111.254 52.44 112.274 52.0133 113.048 51.16L114.108 52.4C113.628 52.96 113.028 53.3867 112.308 53.68C111.601 53.9733 110.808 54.12 109.928 54.12C108.808 54.12 107.814 53.8933 106.948 53.44C106.081 52.9733 105.408 52.3267 104.928 51.5C104.461 50.6733 104.228 49.74 104.228 48.7C104.228 47.6733 104.454 46.7467 104.908 45.92C105.374 45.0933 106.008 44.4533 106.808 44C107.621 43.5333 108.534 43.3 109.548 43.3C110.561 43.3 111.461 43.5333 112.248 44C113.048 44.4533 113.668 45.0933 114.108 45.92C114.561 46.7467 114.788 47.6933 114.788 48.76ZM109.548 44.92C108.628 44.92 107.854 45.2 107.228 45.76C106.614 46.32 106.254 47.0533 106.148 47.96H112.948C112.841 47.0667 112.474 46.34 111.848 45.78C111.234 45.2067 110.468 44.92 109.548 44.92ZM117.766 43.4H119.686V47.9H125.726V43.4H127.646V54H125.726V49.56H119.686V54H117.766V43.4ZM139.28 45.08H135.4V54H133.48V45.08H129.6V43.4H139.28V45.08ZM146.863 43.3C147.889 43.3 148.809 43.5267 149.623 43.98C150.436 44.4333 151.069 45.0667 151.523 45.88C151.989 46.6933 152.223 47.6333 152.223 48.7C152.223 49.7667 151.989 50.7133 151.523 51.54C151.069 52.3533 150.436 52.9867 149.623 53.44C148.809 53.8933 147.889 54.12 146.863 54.12C146.103 54.12 145.403 53.9733 144.763 53.68C144.136 53.3867 143.603 52.96 143.163 52.4V57.88H141.243V43.4H143.083V45.08C143.509 44.4933 144.049 44.0533 144.703 43.76C145.356 43.4533 146.076 43.3 146.863 43.3ZM146.703 52.44C147.383 52.44 147.989 52.2867 148.523 51.98C149.069 51.66 149.496 51.22 149.803 50.66C150.123 50.0867 150.283 49.4333 150.283 48.7C150.283 47.9667 150.123 47.32 149.803 46.76C149.496 46.1867 149.069 45.7467 148.523 45.44C147.989 45.1333 147.383 44.98 146.703 44.98C146.036 44.98 145.429 45.14 144.883 45.46C144.349 45.7667 143.923 46.2 143.603 46.76C143.296 47.32 143.143 47.9667 143.143 48.7C143.143 49.4333 143.296 50.0867 143.603 50.66C143.909 51.22 144.336 51.66 144.883 51.98C145.429 52.2867 146.036 52.44 146.703 52.44ZM167.403 46.7C168.283 46.94 168.97 47.36 169.463 47.96C169.957 48.5467 170.203 49.2533 170.203 50.08C170.203 50.9067 169.937 51.6333 169.403 52.26C168.883 52.8733 168.183 53.3467 167.303 53.68C166.437 54 165.49 54.16 164.463 54.16C163.53 54.16 162.603 54.02 161.683 53.74C160.763 53.46 159.923 53.04 159.163 52.48L159.863 51C160.477 51.48 161.163 51.84 161.923 52.08C162.683 52.32 163.45 52.44 164.223 52.44C165.343 52.44 166.283 52.2067 167.043 51.74C167.803 51.26 168.183 50.6067 168.183 49.78C168.183 49.0733 167.897 48.5333 167.323 48.16C166.75 47.7733 165.943 47.58 164.903 47.58H161.783V45.96H164.763C165.657 45.96 166.35 45.78 166.843 45.42C167.35 45.0467 167.603 44.5333 167.603 43.88C167.603 43.1467 167.277 42.5667 166.623 42.14C165.97 41.7133 165.143 41.5 164.143 41.5C163.49 41.5 162.823 41.5933 162.143 41.78C161.477 41.9667 160.843 42.2467 160.243 42.62L159.603 40.98C160.31 40.58 161.057 40.28 161.843 40.08C162.63 39.88 163.417 39.78 164.203 39.78C165.19 39.78 166.097 39.9333 166.923 40.24C167.75 40.5467 168.403 40.9933 168.883 41.58C169.377 42.1667 169.623 42.8533 169.623 43.64C169.623 44.3467 169.423 44.9667 169.023 45.5C168.637 46.0333 168.097 46.4333 167.403 46.7ZM176.995 43.3C178.462 43.3 179.582 43.66 180.355 44.38C181.142 45.1 181.535 46.1733 181.535 47.6V54H179.715V52.6C179.395 53.0933 178.935 53.4733 178.335 53.74C177.749 53.9933 177.049 54.12 176.235 54.12C175.049 54.12 174.095 53.8333 173.375 53.26C172.669 52.6867 172.315 51.9333 172.315 51C172.315 50.0667 172.655 49.32 173.335 48.76C174.015 48.1867 175.095 47.9 176.575 47.9H179.615V47.52C179.615 46.6933 179.375 46.06 178.895 45.62C178.415 45.18 177.709 44.96 176.775 44.96C176.149 44.96 175.535 45.0667 174.935 45.28C174.335 45.48 173.829 45.7533 173.415 46.1L172.615 44.66C173.162 44.22 173.815 43.8867 174.575 43.66C175.335 43.42 176.142 43.3 176.995 43.3ZM176.555 52.64C177.289 52.64 177.922 52.48 178.455 52.16C178.989 51.8267 179.375 51.36 179.615 50.76V49.28H176.655C175.029 49.28 174.215 49.8267 174.215 50.92C174.215 51.4533 174.422 51.8733 174.835 52.18C175.249 52.4867 175.822 52.64 176.555 52.64ZM184.993 43.4H186.913V51.12L193.413 43.4H195.153V54H193.233V46.28L186.753 54H184.993V43.4ZM189.953 42.02C188.966 42.02 188.199 41.7867 187.653 41.32C187.106 40.84 186.826 40.1533 186.813 39.26H188.113C188.126 39.7533 188.293 40.1533 188.613 40.46C188.946 40.7533 189.386 40.9 189.933 40.9C190.479 40.9 190.919 40.7533 191.253 40.46C191.586 40.1533 191.759 39.7533 191.773 39.26H193.113C193.099 40.1533 192.813 40.84 192.253 41.32C191.693 41.7867 190.926 42.02 189.953 42.02ZM211.1 43.4V54H209.36V46.26L205.4 52.8H204.56L200.64 46.24V54H198.88V43.4H200.86L205.02 50.56L209.3 43.4H211.1ZM219.377 54.12C218.323 54.12 217.377 53.8867 216.537 53.42C215.697 52.9533 215.037 52.3133 214.557 51.5C214.09 50.6733 213.857 49.74 213.857 48.7C213.857 47.66 214.09 46.7333 214.557 45.92C215.037 45.0933 215.697 44.4533 216.537 44C217.377 43.5333 218.323 43.3 219.377 43.3C220.43 43.3 221.37 43.5333 222.197 44C223.037 44.4533 223.69 45.0933 224.157 45.92C224.637 46.7333 224.877 47.66 224.877 48.7C224.877 49.74 224.637 50.6733 224.157 51.5C223.69 52.3133 223.037 52.9533 222.197 53.42C221.37 53.8867 220.43 54.12 219.377 54.12ZM219.377 52.44C220.057 52.44 220.663 52.2867 221.197 51.98C221.743 51.66 222.17 51.22 222.477 50.66C222.783 50.0867 222.937 49.4333 222.937 48.7C222.937 47.9667 222.783 47.32 222.477 46.76C222.17 46.1867 221.743 45.7467 221.197 45.44C220.663 45.1333 220.057 44.98 219.377 44.98C218.697 44.98 218.083 45.1333 217.537 45.44C217.003 45.7467 216.577 46.1867 216.257 46.76C215.95 47.32 215.797 47.9667 215.797 48.7C215.797 49.4333 215.95 50.0867 216.257 50.66C216.577 51.22 217.003 51.66 217.537 51.98C218.083 52.2867 218.697 52.44 219.377 52.44ZM234.869 48.5C236.242 48.8467 236.929 49.7067 236.929 51.08C236.929 52.0133 236.576 52.7333 235.869 53.24C235.176 53.7467 234.136 54 232.749 54H227.649V43.4H232.569C233.822 43.4 234.802 43.64 235.509 44.12C236.216 44.5867 236.569 45.2533 236.569 46.12C236.569 46.68 236.416 47.1667 236.109 47.58C235.816 47.98 235.402 48.2867 234.869 48.5ZM229.529 47.96H232.409C233.142 47.96 233.696 47.8267 234.069 47.56C234.456 47.2933 234.649 46.9067 234.649 46.4C234.649 45.3867 233.902 44.88 232.409 44.88H229.529V47.96ZM232.609 52.52C233.409 52.52 234.009 52.3933 234.409 52.14C234.809 51.8867 235.009 51.4933 235.009 50.96C235.009 50.4133 234.822 50.0067 234.449 49.74C234.089 49.4733 233.516 49.34 232.729 49.34H229.529V52.52H232.609Z" fill="#242424"/>
<rect width="70" height="70" rx="10" fill="url(#paint0_linear)"/>
<path d="M35 62C35.5828 62 36.0553 61.5275 36.0553 60.9447C36.0553 60.3619 35.5828 59.8894 35 59.8894C34.4172 59.8894 33.9447 60.3619 33.9447 60.9447C33.9447 61.5275 34.4172 62 35 62Z" fill="white"/>
<path d="M11.7833 53.9797V60.9447C11.7833 61.5275 12.2557 62 12.8386 62H30.2511C30.834 62 31.3064 61.5275 31.3064 60.9447C31.3064 60.3619 30.834 59.8894 30.2511 59.8894H26.5575V53.9797C26.5575 53.8159 26.5194 53.6543 26.4461 53.5077L23.3916 47.3987V45.5362H27.9207C27.7179 46.2189 27.6129 46.93 27.6129 47.6478C27.6129 51.7211 30.9267 55.035 35 55.035C39.0804 55.035 42.3871 51.7291 42.3871 47.6478C42.3871 46.93 42.2821 46.2188 42.0793 45.5372H46.6084V47.3987L43.5539 53.5077C43.4806 53.6543 43.4424 53.8159 43.4424 53.9797V59.8894H39.7489C39.1661 59.8894 38.6936 60.3619 38.6936 60.9447C38.6936 61.5275 39.1661 62 39.7489 62H57.1614C57.7442 62 58.2167 61.5275 58.2167 60.9447V53.9797C58.2167 53.8159 58.1786 53.6543 58.1053 53.5077L55.0508 47.3987V44.4819C55.0508 43.8991 54.5782 43.4266 53.9955 43.4266C53.4128 43.4266 52.9402 43.8991 52.9402 44.4819V47.3987L50.8296 51.6199L48.719 47.3987C48.719 46.2968 48.719 39.2462 48.719 38.1501C48.719 37.5672 48.2464 37.0948 47.6637 37.0948C47.0809 37.0948 46.6084 37.5672 46.6084 38.1501V43.4266H42.3871V34.9842C42.3871 34.8383 42.3562 34.6953 42.3023 34.5694L37.111 21.9945L38.707 22.8335C39.0626 23.0203 39.4933 22.9892 39.8183 22.7532C40.1432 22.5171 40.306 22.1169 40.2382 21.7211L39.5352 17.6213L42.514 14.717C42.8016 14.4366 42.905 14.0172 42.7808 13.6352C42.6567 13.2532 42.3263 12.9748 41.9289 12.9171L37.8124 12.3194L35.9706 8.58823C35.7928 8.22805 35.4259 8 35.0243 8C34.6226 8 34.2558 8.22816 34.078 8.58833L32.2371 12.3194L28.1208 12.9172C27.7232 12.9749 27.393 13.2533 27.2688 13.6353C27.1446 14.0174 27.2481 14.4367 27.5357 14.7171L30.5145 17.6214L29.8115 21.7212C29.7435 22.117 29.9063 22.5172 30.2313 22.7533C30.5544 22.9881 30.9852 23.0215 31.3426 22.8336L32.9264 22.0008L27.6978 34.569C27.6431 34.6964 27.6127 34.8386 27.6127 34.9843V43.4267H23.3915V38.1502C23.3915 37.5673 22.9191 37.0949 22.3362 37.0949C21.7534 37.0949 21.2809 37.5673 21.2809 38.1502V47.3988L19.1703 51.62L17.0597 47.3988V44.4819C17.0597 43.8991 16.5872 43.4266 16.0044 43.4266C15.4215 43.4266 14.9491 43.8991 14.9491 44.4819V47.3987L11.8946 53.5077C11.8214 53.6543 11.7833 53.8159 11.7833 53.9797ZM45.5531 59.8894V54.2288L47.6637 50.0076L49.7743 54.2288V59.8894H45.5531ZM51.8849 54.2288L53.9955 50.0076L56.1061 54.2288V59.8894H51.8849V54.2288ZM35 30.7629C34.4173 30.7629 33.9447 31.2354 33.9447 31.8183V33.9289H30.2502L35.0206 22.4619L39.7545 33.9289H36.0553V31.8183C36.0553 31.2354 35.5828 30.7629 35 30.7629ZM40.2765 36.0395V42.4817C38.9026 41.0829 37.0032 40.2607 35 40.2607C32.9968 40.2607 31.0974 41.0829 29.7235 42.4815V36.0395H40.2765ZM36.0553 47.2107V42.4794C37.5162 42.7798 38.8089 43.6929 39.5708 45.0103C40.0324 45.8078 40.2765 46.72 40.2765 47.6479C40.2765 48.6985 39.971 49.7024 39.4029 50.5585L36.0553 47.2107ZM29.7235 47.6478C29.7235 46.72 29.9674 45.808 30.429 45.0102C31.1911 43.6928 32.4838 42.7797 33.9447 42.4793V47.6478C33.9447 47.9277 34.0559 48.1962 34.2538 48.394L37.9104 52.0508C37.0542 52.619 36.0504 52.9245 35 52.9245C32.0905 52.9244 29.7235 50.5574 29.7235 47.6478ZM32.3851 16.4973L30.5401 14.6986L33.0896 14.3284C33.4334 14.2784 33.7306 14.0625 33.8843 13.751L35.0246 11.44L36.1655 13.7511C36.3192 14.0625 36.6163 14.2784 36.96 14.3284L39.5095 14.6986L37.6645 16.4973C37.416 16.7397 37.3025 17.089 37.3611 17.4313L37.7966 19.9705L35.5154 18.7714C35.3724 18.6964 35.1999 18.6505 35.0257 18.6503H35.0243C34.863 18.6503 34.6874 18.6902 34.5332 18.7715L32.2531 19.9703L32.6885 17.4314C32.7471 17.089 32.6338 16.7397 32.3851 16.4973ZM22.3363 50.0076L24.4469 54.2288V59.8894H20.2257V54.2288L22.3363 50.0076ZM13.8939 54.2288L16.0045 50.0076L18.1151 54.2288V59.8894H13.8939V54.2288Z" fill="white"/>
<path d="M34.1033 7.81699C34.4701 7.07374 35.5299 7.07374 35.8967 7.81699L37.7063 11.4835C37.8519 11.7786 38.1335 11.9832 38.4592 12.0305L42.5054 12.6185C43.3256 12.7376 43.6531 13.7456 43.0596 14.3242L40.1318 17.1781C39.8961 17.4079 39.7885 17.7389 39.8442 18.0632L40.5353 22.0931C40.6754 22.91 39.818 23.533 39.0844 23.1473L35.4653 21.2446C35.174 21.0915 34.826 21.0915 34.5347 21.2446L30.9156 23.1473C30.182 23.533 29.3246 22.91 29.4647 22.0931L30.1558 18.0632C30.2115 17.7389 30.1039 17.4079 29.8682 17.1781L26.9404 14.3242C26.3469 13.7456 26.6744 12.7376 27.4946 12.6185L31.5408 12.0305C31.8665 11.9832 32.1481 11.7786 32.2937 11.4835L34.1033 7.81699Z" fill="#F1111E"/>
<defs>
<linearGradient id="paint0_linear" x1="35" y1="0" x2="35" y2="70" gradientUnits="userSpaceOnUse">
<stop stop-color="#3EBF1D"/>
<stop offset="1" stop-color="#2A9A15"/>
</linearGradient>
</defs>
</svg>
