<svg width="56" height="56" viewBox="0 0 56 56" fill="none" xmlns="http://www.w3.org/2000/svg">
<path d="M55.8439 29.7389C55.5541 28.3678 54.0717 27.2643 51.3853 26.4506C49.1338 25.7707 46.3025 25.3694 43.1815 25.3026L42.8806 12.6178C42.4682 11.3694 40.9857 10.3551 38.4777 9.59714C35.9697 8.83918 32.7038 8.42676 29.2596 8.42676C25.8264 8.42676 22.5828 8.83918 20.1306 9.59714C18.1131 10.2213 15.6943 11.3806 15.6943 13.3758C15.6943 13.4984 15.7054 13.621 15.7277 13.7436L15.8503 18.8264C15.0255 18.6704 14.1895 18.5924 13.3424 18.5924C5.98567 18.5924 0 24.578 0 31.9347C0 39.3026 5.96338 45.2771 13.3312 45.2771C16.3965 45.2771 19.3726 44.2182 21.7468 42.2898C23.8424 42.7803 26.3057 43.0478 28.914 43.0701C29.4825 46.1576 36.1815 47.5733 42.4236 47.5733C45.8567 47.5733 49.0892 47.1497 51.5637 46.3917C53.6035 45.7675 56 44.5971 56 42.6019L55.8439 29.7389ZM20.7548 11.7373C23.0064 11.0462 26.0271 10.6561 29.2373 10.6561C32.414 10.6561 35.5462 11.0462 37.8201 11.7373C40.25 12.4729 40.7739 13.2309 40.7739 13.3869C40.7739 13.543 40.25 14.301 37.8201 15.0366C35.5573 15.7166 32.4252 16.1178 29.2484 16.1178C26.172 16.1178 23.2516 15.7612 21.0334 15.1147C18.6369 14.4236 17.957 13.6545 17.9013 13.4092C17.9013 13.3981 17.8901 13.3869 17.879 13.3758C17.879 13.1417 18.6258 12.3949 20.7548 11.7373ZM40.9522 16.1401V18.9268C40.8296 19.1162 40.7739 19.328 40.7739 19.551C40.7739 19.6959 40.25 20.465 37.8312 21.2006C35.5685 21.8917 32.4363 22.2819 29.2596 22.2819C26.5064 22.2819 23.8089 21.992 21.6688 21.4459C21.6353 21.4347 21.6019 21.4347 21.5796 21.4236C20.5318 20.5876 19.3503 19.9188 18.1019 19.4506L18.0239 16.3073C18.793 16.6975 19.5955 17.0096 20.4315 17.2325C22.8503 17.9347 25.9825 18.3137 29.2707 18.3137C32.715 18.3137 35.9809 17.9013 38.4777 17.1433C39.3248 16.9204 40.1608 16.5748 40.9522 16.1401ZM20.8105 40.1497C16.2739 44.285 9.24045 43.9506 5.11624 39.414C0.992038 34.8774 1.31529 27.844 5.85191 23.7198C7.90287 21.8583 10.5669 20.8217 13.3312 20.8217C14.4459 20.8217 15.5494 20.9889 16.6194 21.3121C18.0685 21.758 19.4172 22.5048 20.5653 23.508C22.4379 25.1019 23.7197 27.2866 24.2213 29.6943C24.3662 30.4299 24.4443 31.1879 24.4443 31.9347C24.4554 35.0669 23.129 38.0541 20.8105 40.1497ZM23.6417 40.3949C24.5446 39.2914 25.2691 38.0541 25.7818 36.7277C26.7404 36.8057 27.7436 36.8615 28.7803 36.8726C28.758 37.0064 28.758 37.129 28.7803 37.2627L28.8248 40.8519C27.0971 40.8296 25.3694 40.6847 23.6417 40.3949ZM26.6178 30.6083C27.2755 30.6529 27.9554 30.6752 28.6576 30.6863C28.6688 30.7643 28.6911 30.8424 28.7134 30.9204L28.758 34.6322C27.9554 34.621 27.164 34.5876 26.4172 34.5319C26.5844 33.6736 26.6736 32.793 26.6736 31.9236C26.6736 31.4889 26.6513 31.0541 26.6178 30.6083ZM29.3376 28.4682C29.3041 28.4682 29.2818 28.4682 29.2484 28.4682C28.1672 28.4682 27.1417 28.4236 26.1831 28.3455C25.7707 26.8631 25.0908 25.4586 24.199 24.1991C25.871 24.4108 27.5653 24.5223 29.2484 24.5223C32.6927 24.5223 35.9586 24.1099 38.4554 23.3519C39.3248 23.1067 40.1497 22.7612 40.9411 22.3264V25.3026C38.1545 25.3806 35.535 25.7373 33.4506 26.328C31.4889 26.8854 30.1178 27.5987 29.3376 28.4682ZM30.8758 30.129C31.0653 29.7834 31.9013 29.1035 34.0748 28.5016C36.2596 27.8885 39.1019 27.5541 42.0892 27.5541H42.1783C45.3662 27.5541 48.4873 27.922 50.75 28.6131C53.0908 29.3264 53.6592 30.0398 53.6927 30.2293V30.2404C53.6815 30.4076 53.1354 31.1768 50.6608 31.9124C48.3758 32.5924 45.3551 32.9602 42.1783 32.9602C39.2245 32.9602 36.3822 32.6258 34.1975 32.035C32.1019 31.4666 31.199 30.8089 30.9315 30.4299C30.9315 30.3296 30.9092 30.2293 30.8758 30.129ZM53.7707 42.5908C53.7707 42.7468 53.2803 43.5159 50.9061 44.2516C48.6322 44.9538 45.6226 45.344 42.4124 45.344C39.1911 45.344 36.1927 44.965 33.9522 44.285C31.8232 43.6274 31.1099 42.8917 31.1099 42.6465C31.1099 42.6354 31.1099 42.6354 31.1099 42.6242L31.0987 41.9443L31.0653 39.4252C31.957 39.8599 32.8822 40.1943 33.8408 40.4284C36.1815 41.0414 39.1353 41.3758 42.1783 41.3758C45.6226 41.3758 48.8551 40.9634 51.3519 40.2054C52.1656 39.9602 53.1019 39.6258 53.7707 39.1911V42.5908ZM53.6258 36.4156C53.6258 36.5717 53.1131 37.3296 50.7166 38.0653C48.4315 38.7564 45.3997 39.1354 42.1672 39.1354C36.1035 39.1354 31.9793 37.7866 31.0207 36.7166L30.9761 33.1943C33.6067 34.5653 38.0318 35.1895 42.1783 35.1895C45.5669 35.1895 48.7882 34.7882 51.2739 34.0526C52.1433 33.8073 52.9793 33.4729 53.7818 33.0382V35.8248C53.7707 35.992 53.6258 36.1927 53.6258 36.4156Z" fill="#EFA703"/>
<path d="M13.3423 24.5669C9.27387 24.5669 5.98566 27.8663 5.98566 31.9236C5.98566 35.9809 9.28502 39.2803 13.3423 39.2803C17.3997 39.2803 20.699 35.9809 20.699 31.9236C20.6879 27.8663 17.3997 24.578 13.3423 24.5669ZM13.3423 37.0621C10.5111 37.0621 8.21496 34.7659 8.21496 31.9347C8.21496 29.1035 10.5111 26.8073 13.3423 26.8073C16.1736 26.8073 18.4697 29.1035 18.4697 31.9347C18.4697 34.7659 16.1736 37.0621 13.3423 37.0621Z" fill="#EFA703"/>
</svg>
